<mxfile host="app.diagrams.net" agent="Mozilla/5.0 (Windows NT 10.0; Win64; x64; rv:138.0) Gecko/20100101 Firefox/138.0" version="27.0.3">
  <diagram name="Seite-1" id="2SbEr8YPSjjy7zfqW3zf">
    <mxGraphModel dx="2015" dy="1111" grid="1" gridSize="10" guides="1" tooltips="1" connect="1" arrows="1" fold="1" page="1" pageScale="1" pageWidth="1169" pageHeight="827" math="0" shadow="0">
      <root>
        <mxCell id="0" />
        <mxCell id="1" parent="0" />
        <mxCell id="LUVy5N2AyCo91w8iFMN4-1" value="&lt;h1 style=&quot;margin-top: 0px;&quot;&gt;Data Structure&lt;/h1&gt;&lt;p&gt;Work in progress&lt;/p&gt;" style="text;html=1;whiteSpace=wrap;overflow=hidden;rounded=0;" vertex="1" parent="1">
          <mxGeometry x="30" y="20" width="180" height="120" as="geometry" />
        </mxCell>
        <mxCell id="LUVy5N2AyCo91w8iFMN4-2" value="WeatherData" style="swimlane;whiteSpace=wrap;html=1;" vertex="1" parent="1">
          <mxGeometry x="40" y="110" width="240" height="500" as="geometry" />
        </mxCell>
        <mxCell id="LUVy5N2AyCo91w8iFMN4-4" value="&lt;div align=&quot;left&quot;&gt;&lt;ul&gt;&lt;li&gt;Updated_DateTime&lt;/li&gt;&lt;/ul&gt;&lt;/div&gt;" style="text;html=1;align=left;verticalAlign=top;resizable=0;points=[];autosize=1;strokeColor=none;fillColor=none;" vertex="1" parent="LUVy5N2AyCo91w8iFMN4-2">
          <mxGeometry x="-10" y="18" width="170" height="50" as="geometry" />
        </mxCell>
        <mxCell id="LUVy5N2AyCo91w8iFMN4-3" value="Location (1..n)" style="swimlane;whiteSpace=wrap;html=1;" vertex="1" parent="LUVy5N2AyCo91w8iFMN4-2">
          <mxGeometry x="10" y="60" width="200" height="420" as="geometry" />
        </mxCell>
        <mxCell id="LUVy5N2AyCo91w8iFMN4-6" value="&lt;div align=&quot;left&quot;&gt;&lt;ul&gt;&lt;li&gt;Name_ID&lt;/li&gt;&lt;li&gt;Coordinates&lt;/li&gt;&lt;/ul&gt;&lt;/div&gt;" style="text;html=1;align=left;verticalAlign=top;whiteSpace=wrap;rounded=0;" vertex="1" parent="LUVy5N2AyCo91w8iFMN4-3">
          <mxGeometry x="-10" y="20" width="130" height="70" as="geometry" />
        </mxCell>
        <mxCell id="LUVy5N2AyCo91w8iFMN4-7" value="Day (1..n)" style="swimlane;whiteSpace=wrap;html=1;" vertex="1" parent="LUVy5N2AyCo91w8iFMN4-3">
          <mxGeometry x="10" y="80" width="170" height="320" as="geometry" />
        </mxCell>
        <mxCell id="LUVy5N2AyCo91w8iFMN4-8" value="&lt;ul&gt;&lt;li&gt;Weather_Type_Day&lt;/li&gt;&lt;li&gt;Temp_High&lt;/li&gt;&lt;li&gt;Temp_Low&lt;/li&gt;&lt;li&gt;Chance_Rain_Day&lt;/li&gt;&lt;li&gt;Sun_Hours&lt;/li&gt;&lt;li&gt;Clouds_Cover_Day&lt;/li&gt;&lt;li&gt;Sun_Rise&lt;/li&gt;&lt;li&gt;Sun_Set&lt;/li&gt;&lt;li&gt;Sun_Set_Civil&lt;/li&gt;&lt;/ul&gt;" style="text;html=1;align=left;verticalAlign=top;whiteSpace=wrap;rounded=0;" vertex="1" parent="LUVy5N2AyCo91w8iFMN4-7">
          <mxGeometry x="-15" y="20" width="230" height="180" as="geometry" />
        </mxCell>
        <mxCell id="LUVy5N2AyCo91w8iFMN4-10" value="Time (1..n)" style="swimlane;whiteSpace=wrap;html=1;" vertex="1" parent="LUVy5N2AyCo91w8iFMN4-7">
          <mxGeometry x="10" y="190" width="140" height="110" as="geometry" />
        </mxCell>
        <mxCell id="LUVy5N2AyCo91w8iFMN4-11" value="&lt;ul&gt;&lt;li&gt;Weather_Type&lt;/li&gt;&lt;li&gt;Temp&lt;/li&gt;&lt;li&gt;Chance_Rain&lt;/li&gt;&lt;li&gt;Clouds_Cover&lt;/li&gt;&lt;/ul&gt;" style="text;html=1;align=left;verticalAlign=top;whiteSpace=wrap;rounded=0;" vertex="1" parent="LUVy5N2AyCo91w8iFMN4-10">
          <mxGeometry x="-17.5" y="10" width="135" height="90" as="geometry" />
        </mxCell>
      </root>
    </mxGraphModel>
  </diagram>
</mxfile>
